<?xml version="1.0" encoding="UTF-8" standalone="no" ?>
<!DOCTYPE svg PUBLIC "-//W3C//DTD SVG 1.1//EN" "http://www.w3.org/Graphics/SVG/1.1/DTD/svg11.dtd">
<svg xmlns="http://www.w3.org/2000/svg" xmlns:xlink="http://www.w3.org/1999/xlink" version="1.1" width="1080" height="1080" viewBox="0 0 1080 1080" xml:space="preserve">
<desc>Created with Fabric.js 5.2.4</desc>
<defs>
</defs>
<rect x="0" y="0" width="100%" height="100%" fill="transparent"></rect>
<g transform="matrix(1 0 0 1 540 540)" id="b5b8b662-9b2a-4738-9734-deefbdd3415d"  >
<rect style="stroke: none; stroke-width: 1; stroke-dasharray: none; stroke-linecap: butt; stroke-dashoffset: 0; stroke-linejoin: miter; stroke-miterlimit: 4; fill: rgb(255,255,255); fill-rule: nonzero; opacity: 1; visibility: hidden;" vector-effect="non-scaling-stroke"  x="-540" y="-540" rx="0" ry="0" width="1080" height="1080" />
</g>
<g transform="matrix(1 0 0 1 540 540)" id="b7c943b7-d2cf-4783-91c4-d9abbdb6d08c"  >
</g>
<g transform="matrix(1 0 0 1 540 540)"  >
<g style="" vector-effect="non-scaling-stroke"   >
		<g transform="matrix(26.69 0 0 26.69 0 254.92)"  >
<path style="stroke: none; stroke-width: 1; stroke-dasharray: none; stroke-linecap: butt; stroke-dashoffset: 0; stroke-linejoin: miter; stroke-miterlimit: 4; fill: rgb(255,255,255); fill-rule: nonzero; opacity: 1;" vector-effect="non-scaling-stroke"  transform=" translate(-14.99, -24.54)" d="M 25.462 19.105 L 25.462 25.953 L 4.515 25.953 L 4.515 19.105 L 0.489 19.105 L 0.489 27.966 C 0.489 29.077 1.389 29.978 2.505 29.978 L 27.471999999999998 29.978 C 28.586999999999996 29.978 29.488 29.078000000000003 29.488 27.966 L 29.488 19.105 L 25.462 19.105 z" stroke-linecap="round" />
</g>
		<g transform="matrix(26.69 0 0 26.69 -0.05 -150.62)"  >
<path style="stroke: none; stroke-width: 1; stroke-dasharray: none; stroke-linecap: butt; stroke-dashoffset: 0; stroke-linejoin: miter; stroke-miterlimit: 4; fill: rgb(255,255,255); fill-rule: nonzero; opacity: 1;" vector-effect="non-scaling-stroke"  transform=" translate(-14.99, -9.34)" d="M 14.62 18.426 L 8.855999999999998 11.460999999999999 C 8.855999999999998 11.460999999999999 7.978999999999998 10.633 8.929999999999998 10.633 C 9.880999999999997 10.633 12.177999999999997 10.633 12.177999999999997 10.633 C 12.177999999999997 10.633 12.177999999999997 10.075999999999999 12.177999999999997 9.216999999999999 C 12.177999999999997 6.767999999999999 12.177999999999997 2.310999999999999 12.177999999999997 0.493999999999998 C 12.177999999999997 0.493999999999998 12.048999999999998 -1.9984014443252818e-15 12.792999999999997 -1.9984014443252818e-15 C 13.542999999999997 -1.9984014443252818e-15 16.827999999999996 -1.9984014443252818e-15 17.365 -1.9984014443252818e-15 C 17.901 -1.9984014443252818e-15 17.889 0.415999999999998 17.889 0.415999999999998 C 17.889 2.177999999999998 17.889 6.788999999999998 17.889 9.158 C 17.889 9.926 17.889 10.424 17.889 10.424 C 17.889 10.424 19.730999999999998 10.424 20.887 10.424 C 22.041 10.424 21.172 11.291 21.172 11.291 C 21.172 11.291 16.268 17.801000000000002 15.584 18.484 C 15.092 18.979 14.62 18.426 14.62 18.426 z" stroke-linecap="round" />
</g>
</g>
</g>
<g transform="matrix(NaN NaN NaN NaN 0 0)"  >
<g style=""   >
</g>
</g>
<g transform="matrix(NaN NaN NaN NaN 0 0)"  >
<g style=""   >
</g>
</g>
</svg>